<?xml version="1.0" standalone="no"?>
<!DOCTYPE svg PUBLIC "-//W3C//DTD SVG 20010904//EN"
 "http://www.w3.org/TR/2001/REC-SVG-20010904/DTD/svg10.dtd">
<svg version="1.0" xmlns="http://www.w3.org/2000/svg"
 width="960.000000pt" height="720.000000pt" viewBox="0 0 960.000000 720.000000"
 preserveAspectRatio="xMidYMid meet">

<g transform="translate(0.000000,720.000000) scale(0.100000,-0.100000)"
fill="#000000" stroke="none">
<path d="M6555 5006 c-421 -138 -1192 -803 -1407 -1213 -55 -105 -78 -178 -78
-248 0 -199 148 -249 415 -139 11 4 -25 -41 -79 -102 -174 -191 -316 -378
-356 -467 -24 -51 -25 -110 -4 -131 19 -19 101 -22 139 -4 14 6 54 54 90 107
160 237 403 530 667 807 146 152 164 184 136 242 -12 24 -19 27 -64 27 -45 -1
-59 -7 -144 -66 -133 -92 -322 -206 -407 -246 -81 -37 -132 -42 -156 -15 -24
26 -21 59 12 127 153 318 827 934 1243 1135 83 40 138 51 138 27 0 -25 -63
-112 -134 -186 -97 -100 -226 -207 -354 -292 -59 -40 -117 -81 -129 -92 -31
-28 -40 -80 -19 -112 14 -21 24 -25 69 -25 82 1 168 48 352 196 164 131 277
263 341 397 30 63 37 89 37 140 1 73 -20 120 -63 142 -44 23 -161 19 -245 -9z"/>
<path d="M5304 4986 c-162 -87 -739 -549 -1046 -838 -124 -116 -118 -113 -342
-183 -180 -56 -206 -76 -206 -152 0 -27 5 -54 12 -61 14 -14 61 -16 106 -2 30
8 20 -5 -85 -113 -128 -134 -234 -251 -276 -308 -51 -69 -29 -149 42 -149 56
0 107 40 251 197 80 87 221 235 313 330 l169 172 76 25 c63 21 236 66 351 92
l23 5 -20 -33 c-11 -18 -53 -94 -94 -168 -160 -288 -228 -446 -228 -532 0 -70
18 -88 87 -88 63 0 82 19 128 128 50 118 180 372 288 562 l95 165 69 6 c93 9
106 14 142 55 23 26 31 45 31 73 0 47 -16 62 -75 69 -25 2 -45 6 -45 8 0 10
193 305 275 419 141 199 155 223 155 272 0 90 -82 111 -196 49z m-238 -383
c-21 -34 -220 -336 -239 -364 -20 -30 -33 -38 -69 -43 -24 -4 -86 -17 -138
-31 -52 -13 -96 -22 -98 -20 -7 7 285 259 503 432 41 33 50 38 41 26z"/>
</g>
</svg>
