<?xml version="1.0" standalone="no"?>
<!DOCTYPE svg PUBLIC "-//W3C//DTD SVG 20010904//EN"
 "http://www.w3.org/TR/2001/REC-SVG-20010904/DTD/svg10.dtd">
<svg version="1.0" xmlns="http://www.w3.org/2000/svg"
 width="300.000000pt" height="169.000000pt" viewBox="0 0 300.000000 169.000000"
 preserveAspectRatio="xMidYMid meet">
<metadata>
Created by potrace 1.10, written by Peter Selinger 2001-2011
</metadata>
<g transform="translate(0.000000,169.000000) scale(0.100000,-0.100000)"
fill="#000000" stroke="none">
<path d="M1311 1560 c-40 -9 -116 -39 -170 -65 -80 -40 -110 -63 -181 -134
-47 -48 -100 -112 -119 -144 -234 -397 -26 -892 434 -1037 96 -29 282 -38 382
-17 437 93 700 524 563 923 -36 104 -89 185 -180 276 -75 74 -101 93 -191 136
-57 28 -136 58 -176 66 -97 22 -267 20 -362 -4z m404 -20 c168 -53 299 -144
400 -280 147 -196 166 -489 48 -714 -55 -104 -192 -238 -299 -293 -127 -66
-216 -87 -364 -87 -224 0 -381 64 -535 219 -144 144 -205 288 -205 480 0 181
60 330 187 466 120 127 256 199 443 233 63 12 257 -3 325 -24z"/>
<path d="M1372 1506 c-262 -50 -475 -237 -548 -481 -25 -82 -25 -248 0 -330
45 -151 172 -314 306 -392 133 -78 309 -115 455 -95 174 23 296 83 420 207
202 201 249 470 125 721 -132 268 -457 427 -758 370z m304 -26 c241 -61 430
-243 489 -468 20 -80 21 -228 0 -305 -46 -177 -177 -333 -350 -417 -118 -58
-195 -73 -345 -68 -135 5 -201 22 -311 80 -152 79 -281 241 -323 404 -21 80
-21 228 0 308 57 221 247 404 484 465 103 27 251 27 356 1z"/>
<path d="M1409 1274 c-11 -14 -10 -19 10 -35 24 -19 21 -42 -4 -32 -8 3 -15 0
-15 -7 0 -6 10 -10 23 -8 30 4 35 43 7 58 -11 6 -18 15 -14 21 4 6 11 6 20 -2
11 -9 14 -8 14 5 0 21 -24 21 -41 0z"/>
<path d="M1635 1270 c-3 -5 -1 -10 4 -10 6 0 11 5 11 10 0 6 -2 10 -4 10 -3 0
-8 -4 -11 -10z"/>
<path d="M1487 1252 c-27 -29 -22 -51 11 -48 15 2 26 6 25 10 -2 3 -3 17 -3
31 0 30 -11 32 -33 7z m21 -14 c-2 -6 -10 -14 -16 -16 -7 -2 -10 2 -6 12 7 18
28 22 22 4z"/>
<path d="M1548 1264 c-3 -5 0 -22 7 -38 l12 -29 17 24 c18 27 20 39 6 39 -5 0
-10 -8 -10 -17 -1 -14 -4 -13 -14 6 -7 13 -15 20 -18 15z"/>
<path d="M1364 1201 c5 -41 4 -51 -11 -60 -10 -5 -14 -13 -10 -18 5 -4 15 1
23 11 17 24 19 116 3 116 -8 0 -10 -15 -5 -49z"/>
<path d="M1613 1219 c-1 -19 2 -29 9 -27 14 5 17 58 3 58 -5 0 -11 -14 -12
-31z"/>
<path d="M1261 1210 c-1 -24 2 -31 8 -21 7 11 10 9 16 -8 3 -11 13 -21 21 -21
18 0 18 6 -3 28 -10 10 -23 27 -30 38 -11 17 -12 15 -12 -16z"/>
<path d="M1327 1234 c-7 -7 13 -54 24 -54 4 0 3 14 -2 30 -12 32 -13 33 -22
24z"/>
<path d="M1663 1228 c0 -7 -4 -22 -8 -33 -7 -20 -6 -20 9 -1 17 21 21 46 8 46
-5 0 -9 -6 -9 -12z"/>
<path d="M1693 1218 c0 -7 -4 -21 -8 -30 -4 -10 -3 -18 3 -18 8 0 21 31 22 53
0 13 -17 8 -17 -5z"/>
<path d="M1199 1179 c-8 -16 -8 -24 2 -33 9 -8 11 -7 6 6 -3 10 -2 20 2 22 10
7 33 -42 26 -55 -4 -5 -2 -9 3 -9 17 0 22 13 10 27 -15 18 -2 29 17 13 12 -10
15 -10 15 4 0 9 -6 16 -14 16 -7 0 -19 7 -26 15 -17 20 -27 19 -41 -6z"/>
<path d="M1712 1165 c-36 -36 -35 -55 2 -55 15 0 31 13 48 39 14 22 23 42 20
45 -13 14 -39 3 -70 -29z m37 -10 c-21 -36 -49 -47 -49 -20 0 9 9 15 22 15 12
0 18 3 15 7 -8 7 11 33 24 33 5 0 -1 -16 -12 -35z"/>
<path d="M1797 1139 c-3 -12 -10 -18 -16 -14 -6 3 -11 1 -11 -4 0 -6 9 -11 20
-11 14 0 20 7 20 21 0 13 4 18 12 13 7 -4 8 -3 4 4 -11 18 -23 14 -29 -9z"/>
<path d="M1440 1004 c-36 -19 -124 -63 -197 -98 -124 -60 -131 -65 -118 -82
12 -16 14 -16 15 -3 0 19 64 50 87 43 12 -4 14 -3 6 3 -8 6 36 33 135 82 l148
73 189 -95 c185 -92 189 -95 161 -106 -20 -8 -134 -11 -371 -9 l-341 3 4 -22
c5 -26 22 -31 22 -8 0 14 40 16 333 15 326 -1 380 3 389 31 3 9 -67 48 -195
111 -109 54 -200 97 -200 96 -1 0 -31 -16 -67 -34z"/>
<path d="M1400 950 c-52 -27 -92 -49 -87 -49 4 -1 48 19 97 44 49 25 95 45
102 44 7 0 76 -31 153 -69 l140 -68 -294 -1 c-162 -1 -292 -4 -288 -7 11 -11
569 -6 580 5 7 7 -34 32 -135 81 -80 38 -151 70 -159 69 -8 0 -57 -22 -109
-49z"/>
<path d="M1255 880 c-3 -6 1 -7 9 -4 18 7 21 14 7 14 -6 0 -13 -4 -16 -10z"/>
<path d="M1186 764 c-7 -17 0 -34 14 -34 5 0 7 7 3 15 -3 9 -2 15 3 14 25 -4
64 2 64 11 0 17 -77 12 -84 -6z"/>
<path d="M1386 771 c-3 -4 12 -8 34 -8 22 0 37 4 34 8 -3 5 -18 9 -34 9 -16 0
-31 -4 -34 -9z"/>
<path d="M1566 771 c-3 -4 12 -8 34 -8 22 0 37 4 34 8 -3 5 -18 9 -34 9 -16 0
-31 -4 -34 -9z"/>
<path d="M1744 769 c-4 -7 4 -10 22 -9 45 3 54 1 54 -14 0 -10 -7 -12 -22 -9
-19 5 -21 3 -10 -8 8 -9 12 -52 12 -141 0 -96 -3 -128 -12 -128 -16 0 12 -20
27 -20 7 0 9 49 7 140 -3 95 -1 145 7 154 20 24 2 46 -39 46 -22 0 -42 -5 -46
-11z"/>
<path d="M1848 773 c7 -3 16 -2 19 1 4 3 -2 6 -13 5 -11 0 -14 -3 -6 -6z"/>
<path d="M1287 749 c6 -20 3 -21 -23 -15 -26 6 -27 5 -11 -7 14 -12 17 -31 17
-123 0 -60 5 -126 11 -146 9 -34 13 -38 44 -38 31 0 35 4 44 38 14 50 14 269
0 277 -6 4 -8 13 -5 21 4 11 -5 14 -38 14 -40 0 -44 -2 -39 -21z m73 -145 c0
-111 -10 -164 -30 -164 -5 0 -10 9 -10 20 0 11 -4 20 -9 20 -15 0 -8 225 8
244 10 12 17 14 27 5 10 -8 14 -41 14 -125z"/>
<path d="M1474 753 c1 -14 -6 -18 -29 -16 -29 2 -29 1 -10 -13 18 -13 20 -27
21 -127 0 -62 4 -127 8 -145 7 -31 10 -33 44 -30 32 3 38 7 43 33 11 53 10
273 -2 280 -6 4 -8 13 -5 21 4 11 -4 14 -33 14 -31 0 -38 -4 -37 -17z m61
-156 c0 -95 -4 -140 -12 -149 -27 -26 -38 9 -41 138 -3 112 -2 127 15 139 10
8 23 13 28 11 6 -2 10 -57 10 -139z"/>
<path d="M1654 753 c1 -14 -6 -18 -28 -16 -29 2 -29 2 -7 -13 21 -15 22 -22
20 -137 -1 -79 -5 -125 -13 -129 -7 -5 -5 -8 7 -8 9 0 17 -7 17 -15 0 -11 11
-15 40 -15 37 0 40 2 49 38 13 48 13 272 1 272 -6 0 -10 9 -10 20 0 17 -7 20
-39 20 -31 0 -38 -4 -37 -17z m61 -23 c6 -9 7 -72 5 -228 0 -35 -4 -44 -22
-51 -13 -5 -27 -5 -32 -1 -5 5 -10 66 -11 137 -1 106 1 130 14 140 20 15 38
16 46 3z"/>
<path d="M1784 590 c0 -52 1 -74 3 -47 2 26 2 68 0 95 -2 26 -3 4 -3 -48z"/>
<path d="M1421 514 c0 -11 3 -14 6 -6 3 7 2 16 -1 19 -3 4 -6 -2 -5 -13z"/>
<path d="M1428 453 c7 -3 16 -2 19 1 4 3 -2 6 -13 5 -11 0 -14 -3 -6 -6z"/>
<path d="M1180 431 c-5 -11 -10 -22 -10 -25 0 -3 152 -7 338 -9 l337 -3 -346
1 c-347 0 -369 -2 -369 -35 0 -7 123 -10 380 -10 331 0 380 2 380 15 0 8 -6
15 -13 15 -8 0 -19 11 -25 25 -6 14 -17 25 -24 25 -9 0 -8 -3 2 -10 10 -6
-101 -9 -320 -8 -184 0 -323 3 -307 5 23 4 25 6 13 19 -19 18 -23 18 -36 -5z
m670 -61 c10 -6 -103 -10 -345 -9 -198 0 -351 4 -340 8 30 12 667 13 685 1z"/>
<path d="M1398 423 c6 -2 18 -2 25 0 6 3 1 5 -13 5 -14 0 -19 -2 -12 -5z"/>
<path d="M1758 423 c6 -2 18 -2 25 0 6 3 1 5 -13 5 -14 0 -19 -2 -12 -5z"/>
</g>
</svg>
